<svg width="266" height="73" viewBox="0 0 638 142" fill="none" xmlns="http://www.w3.org/2000/svg">
<rect x="43" y="36" width="85" height="71" rx="10" fill="#025464"/>
<rect x="86" width="85" height="71" rx="10" fill="#E57C23"/>
<rect y="71" width="85" height="71" rx="10" fill="#E8AA42"/>
<path d="M194.068 107V37.1818H241.114V49.3523H208.83V65.9886H238.693V78.1591H208.83V94.8295H241.25V107H194.068ZM301.395 54.6364L283.088 107H266.724L248.418 54.6364H263.759L274.634 92.1023H275.179L286.02 54.6364H301.395ZM331.003 108.023C325.616 108.023 320.98 106.932 317.094 104.75C313.23 102.545 310.253 99.4318 308.162 95.4091C306.071 91.3636 305.026 86.5795 305.026 81.0568C305.026 75.6705 306.071 70.9432 308.162 66.875C310.253 62.8068 313.196 59.6364 316.991 57.3636C320.81 55.0909 325.287 53.9545 330.423 53.9545C333.878 53.9545 337.094 54.5114 340.071 55.625C343.071 56.7159 345.685 58.3636 347.912 60.5682C350.162 62.7727 351.912 65.5455 353.162 68.8864C354.412 72.2045 355.037 76.0909 355.037 80.5455V84.5341H310.821V75.5341H341.366C341.366 73.4432 340.912 71.5909 340.003 69.9773C339.094 68.3636 337.832 67.1023 336.219 66.1932C334.628 65.2614 332.776 64.7955 330.662 64.7955C328.457 64.7955 326.503 65.3068 324.798 66.3295C323.116 67.3295 321.798 68.6818 320.844 70.3864C319.889 72.0682 319.401 73.9432 319.378 76.0114V84.5682C319.378 87.1591 319.855 89.3977 320.81 91.2841C321.787 93.1705 323.162 94.625 324.935 95.6477C326.707 96.6705 328.81 97.1818 331.241 97.1818C332.855 97.1818 334.332 96.9545 335.673 96.5C337.014 96.0455 338.162 95.3636 339.116 94.4545C340.071 93.5455 340.798 92.4318 341.298 91.1136L354.73 92C354.048 95.2273 352.651 98.0455 350.537 100.455C348.446 102.841 345.741 104.705 342.423 106.045C339.128 107.364 335.321 108.023 331.003 108.023ZM364.787 37.1818H382.991L402.219 84.0909H403.037L422.264 37.1818H440.469V107H426.151V61.5568H425.571L407.503 106.659H397.753L379.685 61.3864H379.105V107H364.787V37.1818ZM467.29 107.989C463.949 107.989 460.972 107.409 458.358 106.25C455.744 105.068 453.676 103.33 452.153 101.034C450.653 98.7159 449.903 95.8295 449.903 92.375C449.903 89.4659 450.438 87.0227 451.506 85.0455C452.574 83.0682 454.028 81.4773 455.869 80.2727C457.71 79.0682 459.801 78.1591 462.142 77.5455C464.506 76.9318 466.983 76.5 469.574 76.25C472.619 75.9318 475.074 75.6364 476.938 75.3636C478.801 75.0682 480.153 74.6364 480.994 74.0682C481.835 73.5 482.256 72.6591 482.256 71.5455V71.3409C482.256 69.1818 481.574 67.5114 480.21 66.3295C478.869 65.1477 476.96 64.5568 474.483 64.5568C471.869 64.5568 469.79 65.1364 468.244 66.2955C466.699 67.4318 465.676 68.8636 465.176 70.5909L451.744 69.5C452.426 66.3182 453.767 63.5682 455.767 61.25C457.767 58.9091 460.347 57.1136 463.506 55.8636C466.688 54.5909 470.369 53.9545 474.551 53.9545C477.46 53.9545 480.244 54.2955 482.903 54.9773C485.585 55.6591 487.96 56.7159 490.028 58.1477C492.119 59.5795 493.767 61.4205 494.972 63.6705C496.176 65.8977 496.778 68.5682 496.778 71.6818V107H483.006V99.7386H482.597C481.756 101.375 480.631 102.818 479.222 104.068C477.812 105.295 476.119 106.261 474.142 106.966C472.165 107.648 469.881 107.989 467.29 107.989ZM471.449 97.9659C473.585 97.9659 475.472 97.5455 477.108 96.7045C478.744 95.8409 480.028 94.6818 480.96 93.2273C481.892 91.7727 482.358 90.125 482.358 88.2841V82.7273C481.903 83.0227 481.278 83.2955 480.483 83.5455C479.71 83.7727 478.835 83.9886 477.858 84.1932C476.881 84.375 475.903 84.5455 474.926 84.7045C473.949 84.8409 473.062 84.9659 472.267 85.0795C470.563 85.3295 469.074 85.7273 467.801 86.2727C466.528 86.8182 465.54 87.5568 464.835 88.4886C464.131 89.3977 463.778 90.5341 463.778 91.8977C463.778 93.875 464.494 95.3864 465.926 96.4318C467.381 97.4545 469.222 97.9659 471.449 97.9659ZM551.614 69.5682L538.318 70.3864C538.091 69.25 537.602 68.2273 536.852 67.3182C536.102 66.3864 535.114 65.6477 533.886 65.1023C532.682 64.5341 531.239 64.25 529.557 64.25C527.307 64.25 525.409 64.7273 523.864 65.6818C522.318 66.6136 521.545 67.8636 521.545 69.4318C521.545 70.6818 522.045 71.7386 523.045 72.6023C524.045 73.4659 525.761 74.1591 528.193 74.6818L537.67 76.5909C542.761 77.6364 546.557 79.3182 549.057 81.6364C551.557 83.9545 552.807 87 552.807 90.7727C552.807 94.2045 551.795 97.2159 549.773 99.8068C547.773 102.398 545.023 104.42 541.523 105.875C538.045 107.307 534.034 108.023 529.489 108.023C522.557 108.023 517.034 106.58 512.92 103.693C508.83 100.784 506.432 96.8295 505.727 91.8295L520.011 91.0795C520.443 93.1932 521.489 94.8068 523.148 95.9205C524.807 97.0114 526.932 97.5568 529.523 97.5568C532.068 97.5568 534.114 97.0682 535.659 96.0909C537.227 95.0909 538.023 93.8068 538.045 92.2386C538.023 90.9205 537.466 89.8409 536.375 89C535.284 88.1364 533.602 87.4773 531.33 87.0227L522.261 85.2159C517.148 84.1932 513.341 82.4205 510.841 79.8977C508.364 77.375 507.125 74.1591 507.125 70.25C507.125 66.8864 508.034 63.9886 509.852 61.5568C511.693 59.125 514.273 57.25 517.591 55.9318C520.932 54.6136 524.841 53.9545 529.318 53.9545C535.932 53.9545 541.136 55.3523 544.932 58.1477C548.75 60.9432 550.977 64.75 551.614 69.5682ZM570.918 126.636C569.077 126.636 567.349 126.489 565.736 126.193C564.145 125.92 562.827 125.568 561.781 125.136L565.054 114.295C566.759 114.818 568.293 115.102 569.656 115.148C571.043 115.193 572.236 114.875 573.236 114.193C574.259 113.511 575.088 112.352 575.724 110.716L576.577 108.5L557.793 54.6364H573.065L583.906 93.0909H584.452L595.395 54.6364H610.77L590.418 112.659C589.44 115.477 588.111 117.932 586.429 120.023C584.77 122.136 582.668 123.761 580.122 124.898C577.577 126.057 574.509 126.636 570.918 126.636Z" fill="url(#paint0_linear_24_10)"/>
<defs>
<linearGradient id="paint0_linear_24_10" x1="196.5" y1="46.5303" x2="711.58" y2="155.088" gradientUnits="userSpaceOnUse">
<stop stop-color="#025464"/>
<stop offset="1" stop-color="#E57C23"/>
</linearGradient>
</defs>
</svg>
